<svg width="38" height="37" viewBox="0 0 38 37" fill="none" xmlns="http://www.w3.org/2000/svg">
<path d="M29.6248 9.25H8.0415C5.48719 9.25 3.4165 11.3207 3.4165 13.875V18.0697L13.9575 21.5833H23.7088L34.2498 18.0697V13.875C34.2498 11.3207 32.1791 9.25 29.6248 9.25Z" fill="#F899CC"/>
<path d="M15.7498 9.25V7.70833H21.9165V9.25H24.9998V7.70833C24.9979 6.00626 23.6186 4.62694 21.9165 4.625H15.7498C14.0478 4.62694 12.6684 6.00626 12.6665 7.70833V9.25H15.7498ZM13.9575 21.5833L3.4165 18.0696V27.75C3.41929 30.3032 5.48833 32.3722 8.0415 32.375H29.6248C32.178 32.3722 34.247 30.3032 34.2498 27.75V18.0696L23.7088 21.5833H13.9575Z" fill="#ED017F"/>
</svg>
