<svg width="38" height="37" viewBox="0 0 38 37" fill="none" xmlns="http://www.w3.org/2000/svg">
<path d="M28.0105 22.5421L24.2704 25.981C22.3472 27.6575 20.0878 28.9032 17.6436 29.6346L18.6359 34.2645C18.6866 34.5009 18.7922 34.722 18.9441 34.9101C19.0961 35.0982 19.2901 35.2479 19.5105 35.3472C19.731 35.4465 19.9717 35.4925 20.2132 35.4816C20.4548 35.4707 20.6904 35.4032 20.901 35.2845L26.9216 31.8887C27.769 31.3739 28.4309 30.6031 28.8119 29.6877C29.1929 28.7723 29.2733 27.7596 29.0414 26.7955L28.0105 22.5421ZM11.8677 13.5295L15.0878 9.70636L11.0721 8.73745C10.0958 8.39702 9.02931 8.42138 8.0696 8.80603C7.10989 9.19067 6.32179 9.90962 5.85088 10.8301L2.45892 16.8424C2.34007 17.053 2.27243 17.2886 2.26147 17.5302C2.25051 17.7718 2.29654 18.0125 2.39583 18.233C2.49513 18.4535 2.6449 18.6475 2.83305 18.7994C3.0212 18.9513 3.24245 19.0569 3.47892 19.1074L8.21607 20.1229C9.00142 17.7122 10.2409 15.4742 11.8677 13.5295V13.5295ZM26.4644 13.5918C26.9218 13.5918 27.3689 13.4561 27.7492 13.202C28.1295 12.9479 28.4259 12.5868 28.6009 12.1642C28.7759 11.7417 28.8217 11.2767 28.7325 10.8281C28.6432 10.3795 28.423 9.96748 28.0996 9.64407C27.7762 9.32066 27.3641 9.10042 26.9156 9.01119C26.467 8.92196 26.002 8.96776 25.5795 9.14279C25.1569 9.31781 24.7957 9.61421 24.5416 9.9945C24.2875 10.3748 24.1519 10.8219 24.1519 11.2793C24.1521 11.8925 24.3958 12.4806 24.8295 12.9142C25.2631 13.3478 25.8512 13.5915 26.4644 13.5918V13.5918Z" fill="#ED017F"/>
<path d="M35.5099 3.17891C35.4403 2.91486 35.3019 2.67399 35.1089 2.48091C34.9158 2.28782 34.6749 2.14944 34.4109 2.07987C31.2483 1.25781 27.9179 1.34596 24.8033 2.33417C21.6887 3.32239 18.9167 5.17045 16.8066 7.66543L11.8677 13.5295C9.40046 16.4723 7.83527 20.0648 7.36018 23.8755C7.32971 24.1097 7.35343 24.3478 7.42952 24.5713C7.50561 24.7949 7.63203 24.998 7.79903 25.165L12.5784 29.9443C12.7214 30.0875 12.8914 30.2011 13.0784 30.2786C13.2654 30.3561 13.4659 30.396 13.6683 30.396C13.7127 30.396 13.7571 30.3938 13.8023 30.39C17.6715 30.0703 21.3382 28.5259 24.2702 25.981L29.9175 20.7885C32.4213 18.6839 34.2761 15.9117 35.2661 12.7943C36.2562 9.67689 36.3407 6.34247 35.5099 3.17891V3.17891ZM26.4644 13.5917C26.007 13.5917 25.5599 13.456 25.1796 13.2019C24.7993 12.9478 24.5029 12.5867 24.3279 12.1641C24.1529 11.7416 24.1071 11.2766 24.1963 10.828C24.2855 10.3794 24.5058 9.96739 24.8292 9.64399C25.1526 9.32058 25.5646 9.10033 26.0132 9.0111C26.4618 8.92188 26.9268 8.96767 27.3493 9.1427C27.7719 9.31773 28.133 9.61412 28.3871 9.99441C28.6412 10.3747 28.7769 10.8218 28.7769 11.2792C28.7766 11.8924 28.5329 12.4805 28.0993 12.9141C27.6657 13.3477 27.0776 13.5914 26.4644 13.5917V13.5917Z" fill="#F899CC"/>
</svg>
