<svg width="38" height="37" viewBox="0 0 38 37" fill="none" xmlns="http://www.w3.org/2000/svg">
<path d="M6.49984 24.6666C4.79696 24.6666 3.4165 23.2862 3.4165 21.5833C3.4165 19.8804 4.79696 18.5 6.49984 18.5C8.20272 18.5 9.58317 19.8804 9.58317 21.5833C9.58097 23.2853 8.20181 24.6644 6.49984 24.6666ZM6.49984 9.24998C4.79696 9.24998 3.4165 7.86953 3.4165 6.16665C3.4165 4.46377 4.79696 3.08331 6.49984 3.08331C8.20272 3.08331 9.58317 4.46377 9.58317 6.16665C9.58097 7.86862 8.20181 9.24778 6.49984 9.24998ZM21.9165 9.24998C20.2136 9.24998 18.8332 7.86953 18.8332 6.16665C18.8332 4.46377 20.2136 3.08331 21.9165 3.08331C23.6194 3.08331 24.9998 4.46377 24.9998 6.16665C24.9976 7.86862 23.6185 9.24778 21.9165 9.24998ZM21.9165 24.6666C20.2136 24.6666 18.8332 23.2862 18.8332 21.5833C18.8332 19.8804 20.2136 18.5 21.9165 18.5C23.6194 18.5 24.9998 19.8804 24.9998 21.5833C24.9976 23.2853 23.6185 24.6644 21.9165 24.6666Z" fill="#F467B2"/>
<path d="M15.7498 33.9166C14.047 33.9166 12.6665 32.5362 12.6665 30.8333C12.6665 29.1304 14.047 27.75 15.7498 27.75C17.4527 27.75 18.8332 29.1304 18.8332 30.8333C18.831 32.5353 17.4518 33.9144 15.7498 33.9166ZM15.7498 18.5C14.047 18.5 12.6665 17.1195 12.6665 15.4166C12.6665 13.7138 14.047 12.3333 15.7498 12.3333C17.4527 12.3333 18.8332 13.7138 18.8332 15.4166C18.831 17.1186 17.4518 18.4978 15.7498 18.5ZM31.1665 18.5C29.4636 18.5 28.0832 17.1195 28.0832 15.4166C28.0832 13.7138 29.4636 12.3333 31.1665 12.3333C32.8694 12.3333 34.2498 13.7138 34.2498 15.4166C34.2476 17.1186 32.8685 18.4978 31.1665 18.5ZM31.1665 33.9166C29.4636 33.9166 28.0832 32.5362 28.0832 30.8333C28.0832 29.1304 29.4636 27.75 31.1665 27.75C32.8694 27.75 34.2498 29.1304 34.2498 30.8333C34.2476 32.5353 32.8685 33.9144 31.1665 33.9166Z" fill="#ED017F"/>
<path d="M19.2623 7.70833C18.6902 6.76016 18.6902 5.57317 19.2623 4.625H9.15418C9.72627 5.57317 9.72627 6.76016 9.15418 7.70833H19.2623ZM6.49992 18.5C7.04286 18.5031 7.57511 18.6512 8.04159 18.9291V8.82092C7.09341 9.39302 5.90642 9.39302 4.95825 8.82092V18.9291C5.42473 18.6512 5.95697 18.5031 6.49992 18.5Z" fill="#FCE0EF"/>
<path d="M31.1666 27.75C31.7095 27.7531 32.2418 27.9012 32.7083 28.1791V18.0709C31.7601 18.643 30.5731 18.643 29.6249 18.0709V28.1791C30.0914 27.9012 30.6236 27.7531 31.1666 27.75ZM15.7499 27.75C16.2929 27.7531 16.8251 27.9012 17.2916 28.1791V18.0709C16.3434 18.643 15.1564 18.643 14.2083 18.0709V28.1791C14.6747 27.9012 15.207 27.7531 15.7499 27.75Z" fill="#F467B2"/>
<path d="M19.2625 20.0417H17.2917V23.125H19.2625C18.6904 22.1768 18.6904 20.9899 19.2625 20.0417ZM14.2084 23.125V20.0417H9.1543C9.72639 20.9899 9.72639 22.1768 9.1543 23.125H14.2084Z" fill="#FCE0EF"/>
<path d="M28.5125 29.2917H18.4043C18.9764 30.2398 18.9764 31.4268 18.4043 32.375H28.5125C27.9404 31.4268 27.9404 30.2398 28.5125 29.2917ZM28.5125 16.9583C27.9404 16.0102 27.9404 14.8232 28.5125 13.875H18.4043C18.9764 14.8232 18.9764 16.0102 18.4043 16.9583H28.5125Z" fill="#F467B2"/>
<path d="M23.4583 13.875V8.82092C22.5102 9.39302 21.3232 9.39302 20.375 8.82092V13.875H23.4583ZM20.375 16.9583V18.9291C21.3232 18.357 22.5102 18.357 23.4583 18.9291V16.9583H20.375Z" fill="#FCE0EF"/>
</svg>
